<?xml version="1.0" encoding="utf-8"?>
<!-- Generator: Adobe Illustrator 17.0.0, SVG Export Plug-In . SVG Version: 6.00 Build 0)  -->
<!DOCTYPE svg PUBLIC "-//W3C//DTD SVG 1.1//EN" "http://www.w3.org/Graphics/SVG/1.1/DTD/svg11.dtd">
<svg version="1.1" xmlns="http://www.w3.org/2000/svg" xmlns:xlink="http://www.w3.org/1999/xlink" x="0px" y="0px" width="1050px"
	 height="1050px" viewBox="0 0 1050 1050" enable-background="new 0 0 1050 1050" xml:space="preserve">
<g id="c">
	<g>
		<g id="c_1_">
			<ellipse fill="#102133" cx="525.299" cy="526.362" rx="525.299" ry="526.202"/>
		</g>
		<g id="a_1_">
			<path fill="none" d="M234.282,613.409c-0.052,0.01-0.112,0.014-0.168,0.01c-0.465-0.01-0.843-0.35-0.843-0.76
				s0.378-0.743,0.843-0.736c0.059,0,0.115,0.007,0.168,0.018v-0.046c2.186-0.701,3.763-2.554,3.763-4.754
				c0-2.204-1.574-4.057-3.763-4.754v-0.046c-0.052,0.01-0.112,0.014-0.168,0.018c-0.465,0.007-0.843-0.322-0.843-0.736
				c0-0.413,0.378-0.753,0.843-0.76c0.059,0,0.115,0.004,0.168,0.01v-0.06c3.151,0.729,5.502,3.269,5.502,6.331
				s-2.35,5.602-5.502,6.331V613.409z"/>
		</g>
	</g>
</g>
<g id="b">
	<g>
		<g id="b_1_">
			<path fill="#0fb8ff" d="M525,0.156c-0.868,0-1.74,0.011-2.608,0.014c278.305,16.032,499.052,246.787,499.052,529.112
				c0,291.845-235.886,528.589-527.407,529.997c10.248,0.589,20.567,0.9,30.96,0.9c292.717,0,530.011-237.295,530.011-530.011
				S817.72,0.156,525,0.156z"/>
		</g>
		<g id="a_5_">
			<path fill="none" d="M231.373,617.848c-0.053,0.011-0.113,0.014-0.169,0.011c-0.469-0.011-0.85-0.353-0.85-0.766
				s0.381-0.748,0.85-0.741c0.06,0,0.116,0.007,0.169,0.018v-0.046c2.206-0.706,3.797-2.573,3.797-4.789
				c0-2.22-1.588-4.086-3.797-4.789V606.7c-0.053,0.011-0.113,0.014-0.169,0.018c-0.469,0.007-0.85-0.325-0.85-0.741
				c0-0.416,0.381-0.759,0.85-0.766c0.06,0,0.116,0.004,0.169,0.011v-0.06c3.18,0.734,5.551,3.293,5.551,6.377
				s-2.371,5.643-5.551,6.377V617.848z"/>
		</g>
	</g>
</g>
<g id="a">
	<g>
		<g id="a_3_">
			<path fill="none" d="M231.373,617.848c-0.053,0.011-0.113,0.014-0.169,0.011c-0.469-0.011-0.85-0.353-0.85-0.766
				s0.381-0.748,0.85-0.741c0.06,0,0.116,0.007,0.169,0.018v-0.046c2.206-0.706,3.797-2.573,3.797-4.789
				c0-2.22-1.588-4.086-3.797-4.789V606.7c-0.053,0.011-0.113,0.014-0.169,0.018c-0.469,0.007-0.85-0.325-0.85-0.741
				c0-0.416,0.381-0.759,0.85-0.766c0.06,0,0.116,0.004,0.169,0.011v-0.06c3.18,0.734,5.551,3.293,5.551,6.377
				s-2.371,5.643-5.551,6.377V617.848z"/>
			<path fill="#04182d" d="M105.456,206.234c45.982,0.551,550.61,6.207,550.515-10.626c-0.106-17.634-27.385-16.756-27.385-16.756
				H515.518c0,0-18.552-1.285-18.552-19.402c0-22.151,20.316-22.049,20.316-22.049h129.852c0,0,22.084-1.362,22.084-22.049
				c0-19.162-22.966-19.402-22.966-19.402s-161.531,0.251-165.187,0c-3.659-0.251-21.054-3.187-21.202-22.928
				c-0.148-19.737,22.084-23.813,22.084-23.813h43.283c0,0,25.617,0.275,25.617-24.696c0-23.065-22.518-24.597-24.569-24.689
				c-0.349,0-0.699-0.007-1.048-0.007C354.361-0.175,202.382,80.691,105.456,206.234z"/>
		</g>
	</g>
</g>
</svg>
