<?xml version="1.0" encoding="utf-8"?>
<!-- Generator: Adobe Illustrator 17.0.0, SVG Export Plug-In . SVG Version: 6.00 Build 0)  -->
<!DOCTYPE svg PUBLIC "-//W3C//DTD SVG 1.1//EN" "http://www.w3.org/Graphics/SVG/1.1/DTD/svg11.dtd">
<svg version="1.1" id="OBJECTS" xmlns="http://www.w3.org/2000/svg" xmlns:xlink="http://www.w3.org/1999/xlink" x="0px" y="0px"
	 width="371.339px" height="345.827px" viewBox="0 0 371.339 345.827" enable-background="new 0 0 371.339 345.827"
	 xml:space="preserve">
<g>
	<g>
		<path fill-rule="evenodd" clip-rule="evenodd" fill="#3F3F3F" d="M193.375,1.781l167.581,69.294
			c8.574,3.545,12.646,13.366,9.104,21.933l-100.092,242.06c-3.545,8.574-13.363,12.647-21.937,9.102L80.451,274.876
			c-8.566-3.542-12.64-13.359-9.095-21.934l100.092-242.06C174.99,2.316,184.809-1.761,193.375,1.781z"/>
		<path fill-rule="evenodd" clip-rule="evenodd" fill="#E7E7E7" d="M259.431,45.263c0.946,0.391,1.395,1.474,1.006,2.416
			c-0.39,0.943-1.472,1.392-2.418,1c-0.943-0.39-1.388-1.47-0.998-2.413C257.41,45.324,258.488,44.873,259.431,45.263z"/>
		<path fill-rule="evenodd" clip-rule="evenodd" fill="#E7E7E7" d="M267.967,48.793l17.069,7.058
			c0.943,0.39,1.391,1.472,1.001,2.414c-0.39,0.943-1.471,1.392-2.414,1.002l-17.069-7.058c-0.939-0.388-1.388-1.47-0.998-2.413
			C265.946,48.854,267.028,48.405,267.967,48.793z"/>
		<path fill-rule="evenodd" clip-rule="evenodd" fill="#E7E7E7" d="M172.96,288.444c3.91,1.617,5.764,6.092,4.147,10.002
			c-1.615,3.906-6.09,5.769-10,4.152c-3.907-1.615-5.763-6.096-4.147-10.002C164.577,288.686,169.054,286.828,172.96,288.444z"/>
		<path fill-rule="evenodd" clip-rule="evenodd" fill="#BAE3D7" d="M181.827,29.709l167.581,69.294l-89.826,217.235L92.001,246.944
			L181.827,29.709z"/>
	</g>
</g>
<g>
	<g>
		<path fill="#3D6C62" d="M279.516,208.715c0,0-0.52,12.426-11.329,13.762c-10.812,1.344-18.448-23.179-29.217-30.193
			c-10.775-7.021-25.84-0.26-25.84-0.26s-5.891-15.426-18.475-18.064c-12.581-2.642-35.306,9.327-42.008,0.741
			c-6.709-8.58,1.695-17.746,1.695-17.746s-12.63,4.513-14.631,20.093c-2.001,15.58,17.977,35.466,43.138,28.774
			c25.156-6.689,25.856-8.96,27.926-8.104c2.07,0.856,0.966,2.96,14.051,25.462c13.083,22.506,41.271,22.536,50.861,10.095
			C285.271,220.83,279.516,208.715,279.516,208.715z"/>
	</g>
	<g>
		<path fill="#3D6C62" d="M257.508,131.17c-10.178,0.631-18.608-1.469-18.608-1.469s-7.455-4.469-14.211-12.102
			c-6.755-7.637-42.779-19.764-50.774-19.384l-3.014,7.288c0,0,4.251,1.988,2.909,8.576c-1.346,6.596-10.528,27.692,12.31,37.136
			c22.842,9.445,35.325-2.913,38.3-6.756c2.97-3.841,7.332-10.108,11.793-8.263c4.46,1.844,3.126,9.363,2.517,14.18
			c-0.612,4.82-0.497,22.387,22.344,31.832c22.838,9.443,31.232-11.979,34.938-17.599c3.706-5.611,8.116-4.018,8.116-4.018
			l3.014-7.288C301.753,147.39,267.683,130.534,257.508,131.17z M199.772,151.1c-15.997-0.363-20.429-9.141-23.952-15.666
			c-3.529-6.532,2.651-24.265,8.579-26.887c0,0,6.367-3.129,22.516,3.549c16.153,6.679,20.638,14.755,17.738,22.32
			C221.761,141.979,215.769,151.462,199.772,151.1z M279.514,178.311c-7.106,2.13-16.44,5.216-28.025-5.827
			c-11.581-11.041-9.122-21.985-5.829-29.383c3.291-7.404,12.165-9.955,28.318-3.276c16.149,6.678,18.447,13.39,18.447,13.39
			C294.77,159.258,286.618,176.175,279.514,178.311z"/>
	</g>
</g>
<g>
	<g>
		<path fill-rule="evenodd" clip-rule="evenodd" fill="#3F3F3F" d="M13.367,80.002l81.533-47.305
			c11.854-6.878,27.031-2.849,33.906,9L255.796,260.57c6.878,11.854,2.847,27.037-9.006,33.915l-81.533,47.305
			c-11.858,6.88-27.035,2.84-33.913-9.013L4.354,113.904C-2.521,102.055,1.51,86.882,13.367,80.002z"/>
		<path fill-rule="evenodd" clip-rule="evenodd" fill="#E7E7E7" d="M47.338,82.946c1.306-0.758,2.973-0.311,3.73,0.995
			s0.315,2.97-0.99,3.728s-2.975,0.318-3.732-0.988C45.588,85.375,46.032,83.704,47.338,82.946z"/>
		<path fill-rule="evenodd" clip-rule="evenodd" fill="#E7E7E7" d="M56.997,77.342l23.6-13.692c1.306-0.758,2.973-0.311,3.73,0.995
			c0.758,1.306,0.315,2.97-0.99,3.728l-23.6,13.692c-1.306,0.758-2.975,0.318-3.732-0.988S55.692,78.099,56.997,77.342z"/>
		<path fill-rule="evenodd" clip-rule="evenodd" fill="#E7E7E7" d="M189.104,288.987c5.408-3.138,12.329-1.299,15.464,4.105
			c3.133,5.4,1.297,12.325-4.111,15.463c-5.396,3.131-12.327,1.293-15.46-4.107C181.861,299.043,183.708,292.117,189.104,288.987z"
			/>
		<path fill-rule="evenodd" clip-rule="evenodd" fill="#89BCC2" d="M129.964,310.631L21.651,123.948l107.29-62.249l108.313,186.683
			L129.964,310.631z"/>
	</g>
</g>
</svg>
