<?xml version="1.0" encoding="utf-8"?>
<!-- Generator: Adobe Illustrator 17.0.0, SVG Export Plug-In . SVG Version: 6.00 Build 0)  -->
<!DOCTYPE svg PUBLIC "-//W3C//DTD SVG 1.1//EN" "http://www.w3.org/Graphics/SVG/1.1/DTD/svg11.dtd">
<svg version="1.1" id="OBJECTS" xmlns="http://www.w3.org/2000/svg" xmlns:xlink="http://www.w3.org/1999/xlink" x="0px" y="0px"
	 width="317.48px" height="300.472px" viewBox="0 0 317.48 300.472" enable-background="new 0 0 317.48 300.472"
	 xml:space="preserve">
<g>
	<g id="mouse_computer">
		<g>
			<path fill="#264860" d="M159.09,195.629h148.687c3.208,0,5.816,2.611,5.816,5.819c0,3.209-2.608,5.82-5.816,5.82h-29.871
				c-3.198,0-5.802,2.601-5.802,5.803c0,3.198,0,33.549,0,33.549h2.514c0,0,0-31.738,0-33.549c0-1.81,1.478-3.285,3.288-3.285
				h29.871c4.592,0,8.332-3.743,8.332-8.339c0-4.596-3.74-8.334-8.332-8.334l-148.687-0.004"/>
		</g>
		<g>
			<path fill="#89BCC2" d="M276.241,244.381c6.367,0,11.532,5.166,11.532,11.532v27.67c0,6.361-5.166,11.524-11.532,11.524h-3.067
				v-50.726H276.241z"/>
			<path fill="#66A7AA" d="M270.096,244.381h3.078v50.726h-3.078c-6.362,0-11.528-5.163-11.528-11.524v-27.67
				C258.568,249.547,263.734,244.381,270.096,244.381z"/>
		</g>
		<g>
			<path fill="#253A54" d="M277.015,256.617v2.479c0,2.123-1.729,3.843-3.841,3.849v-10.167
				C275.287,252.778,277.015,254.499,277.015,256.617z"/>
			<path fill="#223341" d="M273.174,252.778L273.174,252.778v10.167l0,0c-2.127,0-3.844-1.726-3.844-3.849v-2.479
				C269.33,254.499,271.047,252.778,273.174,252.778z"/>
		</g>
	</g>
	<g id="screen">
		<g>
			<path fill="#AEADB3" d="M90.39,160.23c-2.489,10.18-4.98,20.36-7.468,30.542c23.233,0,46.469,0,69.707,0
				c-2.492-10.181-4.982-20.361-7.47-30.542C126.901,160.23,108.647,160.23,90.39,160.23z"/>
			<path fill="#C2C3C9" d="M117.367,190.771c11.754,0,23.507,0,35.262,0c-2.492-10.181-4.982-20.361-7.47-30.542
				c-9.265,0-18.528,0-27.793,0V190.771z"/>
			<path fill="#264860" d="M156.936,190.232H78.611c-1.988,0-3.599,1.89-3.599,4.228v1.587h85.525v-1.587
				C160.536,192.122,158.921,190.232,156.936,190.232z"/>
			<path fill="#89BCC2" d="M0,148.35v16.831c0,3.239,2.618,5.86,5.865,5.86H229.68c3.238,0,5.867-2.621,5.867-5.86V148.35H0z"/>
			<path fill="#264860" d="M235.547,148.35V5.862c0-3.241-2.628-5.862-5.867-5.862H5.865C2.618,0,0,2.621,0,5.862V148.35H235.547z"
				/>
			<rect x="9.65" y="9.163" fill="#BAE3D7" width="216.25" height="129.462"/>
		</g>
	</g>
	<g id="keyboard">
		<path fill="#AEADB3" d="M228.53,218.819c0-1.474-1.291-2.683-2.863-2.683H9.873c-1.571,0-2.856,1.209-2.856,2.683v79.293
			c0,1.474,1.285,2.684,2.856,2.684h215.793c1.572,0,2.863-1.211,2.863-2.684V218.819z"/>
		<path fill="#C2C3C9" d="M228.53,298.112v-79.293c0-1.474-1.291-2.683-2.863-2.683H70.516l111.871,84.66h43.28
			C227.239,300.797,228.53,299.586,228.53,298.112z"/>
		<g>
			<g>
				<path fill="#FFFFFF" d="M24.607,234.433c0,0.385-0.313,0.698-0.697,0.698H13.246c-0.385,0-0.697-0.313-0.697-0.698v-10.658
					c0-0.387,0.311-0.698,0.697-0.698h10.663c0.384,0,0.697,0.312,0.697,0.698V234.433z"/>
				<path fill="#FFFFFF" d="M46.703,249.114c0,0.389-0.309,0.701-0.698,0.701H35.343c-0.384,0-0.693-0.312-0.693-0.701v-10.662
					c0-0.378,0.309-0.693,0.693-0.693h10.661c0.39,0,0.698,0.314,0.698,0.693V249.114z"/>
				<path fill="#FFFFFF" d="M50.181,263.797c0,0.386-0.313,0.694-0.697,0.694H38.821c-0.38,0-0.698-0.308-0.698-0.694v-10.664
					c0-0.377,0.319-0.691,0.698-0.691h10.663c0.384,0,0.697,0.314,0.697,0.691V263.797z"/>
				<path fill="#FFFFFF" d="M42.991,278.479c0,0.38-0.312,0.696-0.693,0.696H31.634c-0.38,0-0.693-0.315-0.693-0.696v-10.661
					c0-0.383,0.313-0.699,0.693-0.699h10.664c0.381,0,0.693,0.316,0.693,0.699V278.479z"/>
				<path fill="#FFFFFF" d="M24.607,295.013c0,0.385-0.313,0.697-0.697,0.697H13.246c-0.385,0-0.697-0.312-0.697-0.697v-12.518
					c0-0.376,0.311-0.696,0.697-0.696h10.663c0.384,0,0.697,0.32,0.697,0.696V295.013z"/>
				<path fill="#FFFFFF" d="M39.244,295.013c0,0.385-0.312,0.697-0.698,0.697H27.888c-0.381,0-0.696-0.312-0.696-0.697v-12.518
					c0-0.376,0.314-0.696,0.696-0.696h10.657c0.387,0,0.698,0.32,0.698,0.696V295.013z"/>
				<path fill="#FFFFFF" d="M53.89,295.013c0,0.385-0.316,0.697-0.698,0.697H42.529c-0.384,0-0.694-0.312-0.694-0.697v-12.518
					c0-0.376,0.31-0.696,0.694-0.696h10.663c0.383,0,0.698,0.32,0.698,0.696V295.013z"/>
				<path fill="#FFFFFF" d="M178.953,295.013c0,0.385-0.319,0.697-0.701,0.697h-10.663c-0.381,0-0.694-0.312-0.694-0.697v-12.518
					c0-0.376,0.313-0.696,0.694-0.696h10.663c0.383,0,0.701,0.32,0.701,0.696V295.013z"/>
				<path fill="#FFFFFF" d="M193.628,295.013c0,0.385-0.313,0.697-0.697,0.697h-10.654c-0.39,0-0.706-0.312-0.706-0.697v-5.563
					c0-0.38,0.316-0.697,0.706-0.697h10.654c0.384,0,0.697,0.317,0.697,0.697V295.013z"/>
				<path fill="#FFFFFF" d="M222.992,295.013c0,0.385-0.314,0.697-0.698,0.697h-10.659c-0.383,0-0.701-0.312-0.701-0.697v-5.563
					c0-0.38,0.319-0.697,0.701-0.697h10.659c0.384,0,0.698,0.317,0.698,0.697V295.013z"/>
				<path fill="#FFFFFF" d="M72.353,295.013c0,0.385-0.313,0.697-0.691,0.697H57.171c-0.383,0-0.693-0.312-0.693-0.697v-12.518
					c0-0.376,0.31-0.696,0.693-0.696h14.491c0.378,0,0.691,0.32,0.691,0.696V295.013z"/>
				<path fill="#FFFFFF" d="M164.268,295.013c0,0.385-0.31,0.697-0.698,0.697h-14.484c-0.38,0-0.7-0.312-0.7-0.697v-12.518
					c0-0.376,0.32-0.696,0.7-0.696h14.484c0.388,0,0.698,0.32,0.698,0.696V295.013z"/>
				<path fill="#FFFFFF" d="M145.764,295.013c0,0.385-0.317,0.697-0.703,0.697H75.677c-0.38,0-0.698-0.312-0.698-0.697v-12.518
					c0-0.376,0.319-0.696,0.698-0.696h69.384c0.385,0,0.703,0.32,0.703,0.696V295.013z"/>
				<path fill="#FFFFFF" d="M57.672,278.479c0,0.38-0.31,0.696-0.693,0.696H46.315c-0.377,0-0.694-0.315-0.694-0.696v-10.661
					c0-0.383,0.317-0.699,0.694-0.699H56.98c0.382,0,0.693,0.316,0.693,0.699V278.479z"/>
				<path fill="#FFFFFF" d="M72.353,278.479c0,0.38-0.313,0.696-0.691,0.696H60.999c-0.384,0-0.697-0.315-0.697-0.696v-10.661
					c0-0.383,0.313-0.699,0.697-0.699h10.663c0.378,0,0.691,0.316,0.691,0.699V278.479z"/>
				<path fill="#FFFFFF" d="M87.037,278.479c0,0.38-0.313,0.696-0.698,0.696H75.677c-0.38,0-0.698-0.315-0.698-0.696v-10.661
					c0-0.383,0.319-0.699,0.698-0.699h10.661c0.385,0,0.698,0.316,0.698,0.699V278.479z"/>
				<path fill="#FFFFFF" d="M101.717,278.479c0,0.38-0.316,0.696-0.694,0.696H90.361c-0.381,0-0.698-0.315-0.698-0.696v-10.661
					c0-0.383,0.317-0.699,0.698-0.699h10.661c0.378,0,0.694,0.316,0.694,0.699V278.479z"/>
				<path fill="#FFFFFF" d="M116.398,278.479c0,0.38-0.311,0.696-0.694,0.696h-10.661c-0.383,0-0.694-0.315-0.694-0.696v-10.661
					c0-0.383,0.312-0.699,0.694-0.699h10.661c0.383,0,0.694,0.316,0.694,0.699V278.479z"/>
				<path fill="#FFFFFF" d="M131.08,278.479c0,0.38-0.31,0.696-0.694,0.696h-10.663c-0.385,0-0.698-0.315-0.698-0.696v-10.661
					c0-0.383,0.313-0.699,0.698-0.699h10.663c0.384,0,0.694,0.316,0.694,0.699V278.479z"/>
				<path fill="#FFFFFF" d="M145.764,278.479c0,0.38-0.317,0.696-0.703,0.696h-10.66c-0.38,0-0.693-0.315-0.693-0.696v-10.661
					c0-0.383,0.313-0.699,0.693-0.699h10.66c0.385,0,0.703,0.316,0.703,0.699V278.479z"/>
				<path fill="#FFFFFF" d="M160.442,278.479c0,0.38-0.313,0.696-0.698,0.696h-10.659c-0.38,0-0.7-0.315-0.7-0.696v-10.661
					c0-0.383,0.32-0.699,0.7-0.699h10.659c0.385,0,0.698,0.316,0.698,0.699V278.479z"/>
				<path fill="#FFFFFF" d="M175.123,278.479c0,0.38-0.309,0.696-0.695,0.696h-10.662c-0.385,0-0.697-0.315-0.697-0.696v-10.661
					c0-0.383,0.312-0.699,0.697-0.699h10.662c0.387,0,0.695,0.316,0.695,0.699V278.479z"/>
				<path fill="#FFFFFF" d="M189.804,278.479c0,0.38-0.315,0.696-0.697,0.696h-10.66c-0.384,0-0.698-0.315-0.698-0.696v-10.661
					c0-0.383,0.314-0.699,0.698-0.699h10.66c0.383,0,0.697,0.316,0.697,0.699V278.479z"/>
				<path fill="#FFFFFF" d="M222.873,278.479c0,0.38-0.313,0.696-0.697,0.696h-29.049c-0.384,0-0.695-0.315-0.695-0.696v-10.661
					c0-0.383,0.311-0.699,0.695-0.699h29.049c0.384,0,0.697,0.316,0.697,0.699V278.479z"/>
				<path fill="#FFFFFF" d="M64.858,263.797c0,0.386-0.306,0.694-0.691,0.694H53.499c-0.38,0-0.693-0.308-0.693-0.694v-10.664
					c0-0.377,0.313-0.691,0.693-0.691h10.667c0.385,0,0.691,0.314,0.691,0.691V263.797z"/>
				<path fill="#FFFFFF" d="M79.542,263.797c0,0.386-0.314,0.694-0.697,0.694H68.182c-0.381,0-0.691-0.308-0.691-0.694v-10.664
					c0-0.377,0.31-0.691,0.691-0.691h10.663c0.383,0,0.697,0.314,0.697,0.691V263.797z"/>
				<path fill="#FFFFFF" d="M94.218,263.797c0,0.386-0.304,0.694-0.691,0.694H82.864c-0.384,0-0.695-0.308-0.695-0.694v-10.664
					c0-0.377,0.311-0.691,0.695-0.691h10.663c0.387,0,0.691,0.314,0.691,0.691V263.797z"/>
				<path fill="#FFFFFF" d="M108.904,263.797c0,0.386-0.314,0.694-0.694,0.694H97.542c-0.38,0-0.691-0.308-0.691-0.694v-10.664
					c0-0.377,0.312-0.691,0.691-0.691h10.667c0.38,0,0.694,0.314,0.694,0.691V263.797z"/>
				<path fill="#FFFFFF" d="M123.586,263.797c0,0.386-0.316,0.694-0.697,0.694h-10.661c-0.378,0-0.7-0.308-0.7-0.694v-10.664
					c0-0.377,0.322-0.691,0.7-0.691h10.661c0.381,0,0.697,0.314,0.697,0.691V263.797z"/>
				<path fill="#FFFFFF" d="M138.264,263.797c0,0.386-0.313,0.694-0.695,0.694H126.91c-0.385,0-0.697-0.308-0.697-0.694v-10.664
					c0-0.377,0.311-0.691,0.697-0.691h10.659c0.383,0,0.695,0.314,0.695,0.691V263.797z"/>
				<path fill="#FFFFFF" d="M152.944,263.797c0,0.386-0.309,0.694-0.694,0.694h-10.662c-0.383,0-0.696-0.308-0.696-0.694v-10.664
					c0-0.377,0.313-0.691,0.696-0.691h10.662c0.385,0,0.694,0.314,0.694,0.691V263.797z"/>
				<path fill="#FFFFFF" d="M167.628,263.797c0,0.386-0.314,0.694-0.696,0.694h-10.663c-0.381,0-0.694-0.308-0.694-0.694v-10.664
					c0-0.377,0.313-0.691,0.694-0.691h10.663c0.381,0,0.696,0.314,0.696,0.691V263.797z"/>
				<path fill="#FFFFFF" d="M182.31,263.797c0,0.386-0.314,0.694-0.696,0.694h-10.666c-0.384,0-0.694-0.308-0.694-0.694v-10.664
					c0-0.377,0.31-0.691,0.694-0.691h10.666c0.381,0,0.696,0.314,0.696,0.691V263.797z"/>
				<path fill="#FFFFFF" d="M196.987,263.797c0,0.386-0.312,0.694-0.694,0.694h-10.657c-0.388,0-0.7-0.308-0.7-0.694v-10.664
					c0-0.377,0.312-0.691,0.7-0.691h10.657c0.383,0,0.694,0.314,0.694,0.691V263.797z"/>
				<path fill="#FFFFFF" d="M211.669,263.797c0,0.386-0.313,0.694-0.694,0.694h-10.666c-0.381,0-0.691-0.308-0.691-0.694v-10.664
					c0-0.377,0.31-0.691,0.691-0.691h10.666c0.381,0,0.694,0.314,0.694,0.691V263.797z"/>
				<path fill="#FFFFFF" d="M61.384,249.114c0,0.389-0.313,0.701-0.698,0.701H50.024c-0.383,0-0.698-0.312-0.698-0.701v-10.662
					c0-0.378,0.316-0.693,0.698-0.693h10.662c0.385,0,0.698,0.314,0.698,0.693V249.114z"/>
				<path fill="#FFFFFF" d="M76.065,249.114c0,0.389-0.313,0.701-0.698,0.701H64.706c-0.383,0-0.696-0.312-0.696-0.701v-10.662
					c0-0.378,0.313-0.693,0.696-0.693h10.661c0.385,0,0.698,0.314,0.698,0.693V249.114z"/>
				<path fill="#FFFFFF" d="M90.745,249.114c0,0.389-0.312,0.701-0.697,0.701H79.387c-0.38,0-0.691-0.312-0.691-0.701v-10.662
					c0-0.378,0.311-0.693,0.691-0.693h10.661c0.385,0,0.697,0.314,0.697,0.693V249.114z"/>
				<path fill="#FFFFFF" d="M105.425,249.114c0,0.389-0.314,0.701-0.694,0.701H94.067c-0.383,0-0.695-0.312-0.695-0.701v-10.662
					c0-0.378,0.313-0.693,0.695-0.693h10.663c0.38,0,0.694,0.314,0.694,0.693V249.114z"/>
				<path fill="#FFFFFF" d="M120.107,249.114c0,0.389-0.311,0.701-0.698,0.701h-10.66c-0.383,0-0.692-0.312-0.692-0.701v-10.662
					c0-0.378,0.31-0.693,0.692-0.693h10.66c0.387,0,0.698,0.314,0.698,0.693V249.114z"/>
				<path fill="#FFFFFF" d="M134.785,249.114c0,0.389-0.309,0.701-0.693,0.701H123.43c-0.385,0-0.697-0.312-0.697-0.701v-10.662
					c0-0.378,0.311-0.693,0.697-0.693h10.663c0.384,0,0.693,0.314,0.693,0.693V249.114z"/>
				<path fill="#FFFFFF" d="M149.468,249.114c0,0.389-0.309,0.701-0.695,0.701h-10.664c-0.378,0-0.691-0.312-0.691-0.701v-10.662
					c0-0.378,0.313-0.693,0.691-0.693h10.664c0.387,0,0.695,0.314,0.695,0.693V249.114z"/>
				<path fill="#FFFFFF" d="M164.152,249.114c0,0.389-0.313,0.701-0.7,0.701H152.79c-0.383,0-0.694-0.312-0.694-0.701v-10.662
					c0-0.378,0.312-0.693,0.694-0.693h10.661c0.387,0,0.7,0.314,0.7,0.693V249.114z"/>
				<path fill="#FFFFFF" d="M178.828,249.114c0,0.389-0.313,0.701-0.69,0.701h-10.664c-0.385,0-0.694-0.312-0.694-0.701v-10.662
					c0-0.378,0.309-0.693,0.694-0.693h10.664c0.377,0,0.69,0.314,0.69,0.693V249.114z"/>
				<path fill="#FFFFFF" d="M193.514,249.114c0,0.389-0.313,0.701-0.701,0.701h-10.661c-0.377,0-0.693-0.312-0.693-0.701v-10.662
					c0-0.378,0.316-0.693,0.693-0.693h10.661c0.388,0,0.701,0.314,0.701,0.693V249.114z"/>
				<path fill="#FFFFFF" d="M208.192,249.114c0,0.389-0.313,0.701-0.694,0.701h-10.663c-0.384,0-0.695-0.312-0.695-0.701v-10.662
					c0-0.378,0.311-0.693,0.695-0.693h10.663c0.381,0,0.694,0.314,0.694,0.693V249.114z"/>
				<path fill="#FFFFFF" d="M32.022,249.114c0,0.389-0.313,0.701-0.697,0.701H13.246c-0.385,0-0.697-0.312-0.697-0.701v-10.662
					c0-0.378,0.311-0.693,0.697-0.693h18.079c0.384,0,0.697,0.314,0.697,0.693V249.114z"/>
				<path fill="#FFFFFF" d="M222.873,234.433c0,0.385-0.313,0.698-0.697,0.698h-18.079c-0.378,0-0.696-0.313-0.696-0.698v-10.658
					c0-0.387,0.317-0.698,0.696-0.698h18.079c0.384,0,0.697,0.312,0.697,0.698V234.433z"/>
				<path fill="#FFFFFF" d="M35.497,263.797c0,0.386-0.31,0.694-0.698,0.694H13.246c-0.385,0-0.697-0.308-0.697-0.694v-10.664
					c0-0.377,0.311-0.691,0.697-0.691h21.552c0.388,0,0.698,0.314,0.698,0.691V263.797z"/>
				<path fill="#FFFFFF" d="M28.316,278.479c0,0.38-0.314,0.696-0.698,0.696H13.246c-0.385,0-0.697-0.315-0.697-0.696v-10.661
					c0-0.383,0.311-0.699,0.697-0.699h14.371c0.384,0,0.698,0.316,0.698,0.699V278.479z"/>
				<path fill="#FFFFFF" d="M39.285,234.433c0,0.385-0.31,0.698-0.7,0.698H27.93c-0.385,0-0.698-0.313-0.698-0.698v-10.658
					c0-0.387,0.313-0.698,0.698-0.698h10.654c0.39,0,0.7,0.312,0.7,0.698V234.433z"/>
				<path fill="#FFFFFF" d="M53.966,234.433c0,0.385-0.31,0.698-0.696,0.698H42.606c-0.378,0-0.69-0.313-0.69-0.698v-10.658
					c0-0.387,0.311-0.698,0.69-0.698H53.27c0.385,0,0.696,0.312,0.696,0.698V234.433z"/>
				<path fill="#FFFFFF" d="M68.652,234.433c0,0.385-0.32,0.698-0.704,0.698H57.287c-0.383,0-0.693-0.313-0.693-0.698v-10.658
					c0-0.387,0.31-0.698,0.693-0.698h10.661c0.384,0,0.704,0.312,0.704,0.698V234.433z"/>
				<path fill="#FFFFFF" d="M83.329,234.433c0,0.385-0.314,0.698-0.698,0.698H71.968c-0.381,0-0.696-0.313-0.696-0.698v-10.658
					c0-0.387,0.315-0.698,0.696-0.698h10.663c0.384,0,0.698,0.312,0.698,0.698V234.433z"/>
				<path fill="#FFFFFF" d="M98.004,234.433c0,0.385-0.307,0.698-0.693,0.698H86.649c-0.381,0-0.694-0.313-0.694-0.698v-10.658
					c0-0.387,0.313-0.698,0.694-0.698h10.663c0.385,0,0.693,0.312,0.693,0.698V234.433z"/>
				<path fill="#FFFFFF" d="M112.69,234.433c0,0.385-0.313,0.698-0.697,0.698h-10.656c-0.387,0-0.698-0.313-0.698-0.698v-10.658
					c0-0.387,0.312-0.698,0.698-0.698h10.656c0.384,0,0.697,0.312,0.697,0.698V234.433z"/>
				<path fill="#FFFFFF" d="M127.366,234.433c0,0.385-0.306,0.698-0.691,0.698h-10.662c-0.385,0-0.698-0.313-0.698-0.698v-10.658
					c0-0.387,0.313-0.698,0.698-0.698h10.662c0.385,0,0.691,0.312,0.691,0.698V234.433z"/>
				<path fill="#FFFFFF" d="M142.05,234.433c0,0.385-0.312,0.698-0.7,0.698h-10.661c-0.383,0-0.694-0.313-0.694-0.698v-10.658
					c0-0.387,0.311-0.698,0.694-0.698h10.661c0.388,0,0.7,0.312,0.7,0.698V234.433z"/>
				<path fill="#FFFFFF" d="M156.729,234.433c0,0.385-0.309,0.698-0.691,0.698h-10.661c-0.385,0-0.698-0.313-0.698-0.698v-10.658
					c0-0.387,0.313-0.698,0.698-0.698h10.661c0.383,0,0.691,0.312,0.691,0.698V234.433z"/>
				<path fill="#FFFFFF" d="M171.414,234.433c0,0.385-0.314,0.698-0.694,0.698h-10.666c-0.381,0-0.693-0.313-0.693-0.698v-10.658
					c0-0.387,0.311-0.698,0.693-0.698h10.666c0.38,0,0.694,0.312,0.694,0.698V234.433z"/>
				<path fill="#FFFFFF" d="M186.095,234.433c0,0.385-0.313,0.698-0.697,0.698h-10.661c-0.385,0-0.7-0.313-0.7-0.698v-10.658
					c0-0.387,0.314-0.698,0.7-0.698h10.661c0.384,0,0.697,0.312,0.697,0.698V234.433z"/>
				<path fill="#FFFFFF" d="M200.772,234.433c0,0.385-0.309,0.698-0.69,0.698h-10.67c-0.378,0-0.69-0.313-0.69-0.698v-10.658
					c0-0.387,0.311-0.698,0.69-0.698h10.67c0.381,0,0.69,0.312,0.69,0.698V234.433z"/>
				<g>
					<path fill="#FFFFFF" d="M196.257,289.149v5.864c0,0.18,0.068,0.362,0.2,0.492c0.138,0.138,0.32,0.205,0.494,0.205h10.664
						c0.177,0,0.351-0.067,0.49-0.205c0.136-0.13,0.206-0.312,0.206-0.492v-5.864H196.257z"/>
					<path fill="#FFFFFF" d="M208.311,288.361v-5.866c0-0.173-0.07-0.354-0.206-0.487c-0.139-0.137-0.313-0.209-0.49-0.209h-10.664
						c-0.174,0-0.357,0.072-0.494,0.209c-0.132,0.133-0.2,0.314-0.2,0.487v5.866H208.311z"/>
				</g>
				<path fill="#FFFFFF" d="M211.513,237.759c-0.177,0-0.351,0.064-0.49,0.204c-0.136,0.135-0.2,0.31-0.2,0.489v10.662
					c0,0.179,0.064,0.359,0.2,0.496c0.139,0.133,0.313,0.205,0.49,0.205h2.784v13.982c0,0.18,0.071,0.359,0.206,0.493
					c0.136,0.136,0.311,0.202,0.491,0.202h7.183c0.183,0,0.357-0.065,0.494-0.202c0.138-0.133,0.206-0.312,0.206-0.493v-25.345
					c0-0.179-0.068-0.354-0.206-0.489c-0.138-0.14-0.311-0.204-0.494-0.204H211.513z"/>
			</g>
		</g>
	</g>
</g>
</svg>
