<svg width="580" height="400" xmlns="http://www.w3.org/2000/svg">
 <!-- Created with Method Draw - http://github.com/duopixel/Method-Draw/ -->
 <g>
  <title>background</title>
  <rect fill="#fff" id="canvas_background" height="402" width="582" y="-1" x="-1"/>
  <g display="none" overflow="visible" y="0" x="0" height="100%" width="100%" id="canvasGrid">
   <rect fill="url(#gridpattern)" stroke-width="0" y="0" x="0" height="100%" width="100%"/>
  </g>
 </g>
 <g>
  <title>Layer 1</title>
  <path d="m119,158c2,0 4.611046,1.07193 7,-1c1.689247,-1.465073 4.532364,-4.198914 6,-7c2.320526,-4.428894 3.66539,-6.506241 5,-9c2.406006,-4.495682 2.496231,-7.907791 3,-12c0.24437,-1.985016 0,-6 0,-8c0,-3 0,-5 0,-7c0,-2 -1.310013,-2.337494 -4,-4c-4.812012,-2.973984 -7.726959,-5.741066 -15,-8c-4.869553,-1.512436 -11.757111,-3.986916 -18,-5c-4.93544,-0.800911 -7,0 -10,0c-3,0 -4,0 -7,0c-4,0 -5.310005,-0.662506 -8,1c-1.203003,0.7435 -3.770248,3.026749 -4,4c-0.513741,2.176254 -1,6 -1,8c0,3 0,6 0,10c0,3 -0.507057,6.234009 2,11c1.678558,3.190994 5.729622,11.228851 10,16c5.659019,6.322617 10.703011,13.231613 17,21c6.693794,8.257919 18.238876,19.73909 27,28c10.289429,9.70195 21.57663,19.45816 30,29c7.545715,8.547653 16.562866,17.630341 21,25c1.153381,1.915649 4.707108,5.292892 4,6c-0.707108,0.707092 -3,0 -6,0c-4,0 -11.941849,-3.088638 -18,-7c-7.925629,-5.117065 -10.796265,-7.16124 -14,-11c-4.298264,-5.150238 -3,-10 -3,-17c0,-6 -1.061859,-15.070786 0,-23c1.513397,-11.300873 8.188156,-21.907745 14,-34c6.202316,-12.904694 11.518814,-25.233078 18,-38c4.660477,-9.180405 11.448792,-18.824257 14,-26c2.438766,-6.859474 4.881332,-13.025208 6,-18c0.904556,-4.022659 1,-8 1,-11c0,-6 0.610916,-10.03746 0,-15c-1.007553,-8.184425 -4.968811,-15.027405 -12,-23c-7.964783,-9.031181 -13.902924,-14.158775 -22,-19c-6.919739,-4.137299 -8.549149,-6.955168 -12,-8c-0.957092,-0.289784 -2.497559,0.925796 -3,6c-0.7883,7.961067 0,18 0,29c0,15 -3.932693,31.452621 1,57c5.636581,29.192963 20.979507,62.99826 42,103c23.773972,45.241562 51.681107,80.236816 77,114c25.678833,34.243195 82.565735,61.954895 67,92c-123.763947,238.890137 -280.060032,-4.488068 -284,-14c-2.785976,-6.725952 -3.460461,-13.13443 -2,-21c2.542728,-13.694336 15.277985,-25.771942 30,-44c18.350822,-22.721069 34,-41 58,-63c24,-22 45.830338,-42.60405 70,-59c22.993484,-15.598068 46.466324,-26.023911 64,-35c12.36618,-6.330673 22.361664,-12.398285 31,-18c4.19516,-2.720428 7.906342,-5.103409 9,-6c2.78833,-2.285873 5,-2 6,-2c1,0 -4,6 -14,12c-10,6 -25.296082,10.474197 -60,18c-19.200592,4.163788 -32.069,5.414658 -43,7c-5.046219,0.731857 -6,1 -3,1c19,0 44.090256,-2.36377 75,0c26.229309,2.005844 42.433167,5.965897 53,11c5.264099,2.507843 7,5 7,6c0,2 -2.679016,10.581787 -15,17c-12.698242,6.614731 -24.604858,11.865768 -37,17c-5.84314,2.420303 -9,5 -9,7c0,1 -0.436584,4.342346 2,7c4.327148,4.719742 14.573181,10.512482 44,18c9.883118,2.514709 12.693451,4.458801 14,5c0.923889,0.38269 2.75412,1.566284 1,4c-1.84903,2.565369 -7,3 -8,3c-1,0 -1.486267,-0.823761 -2,-3c-0.229767,-0.973236 0,-3 0,-4l0,-1l0,-2l0,-2" id="svg_1" stroke-width="1.5" stroke="#000" fill="none"/>
  <path d="m417,74c1,0 2,0 3,0c2,0 4.076111,2.617317 5,3c2.613129,1.08239 2.793945,5.08744 5,10c2.748047,6.119492 5.458771,11.471245 7,18c1.838013,7.785995 1.498291,14.937965 2,21c0.659851,7.972748 0.981628,13.712006 2,19c1.323761,6.873688 0,13 0,17c0,3 0,5 0,8c0,2 0,4 0,7c0,4 -0.329926,10.013626 0,14c0.501709,6.062042 2,9 2,13c0,2 0,3 0,1c0,-5 -0.499023,-11.953323 -1,-20c-0.434967,-6.986481 0,-16 0,-21c0,-7 -0.642761,-14.254059 2,-20c2.436493,-5.297501 3.4505,-6.450485 6,-9c2.5495,-2.549515 5,-4 7,-4c2,0 4,0 5,0c2,0 3,2 3,5c0,5 1.701965,14.162399 0,23c-2.036743,10.575989 -7.74292,18.205978 -15,27c-6.765961,8.198883 -18.17923,14.589905 -30,20c-12.199432,5.583389 -22.889893,11.316833 -34,15c-9.909943,3.285294 -18.635681,6.480377 -28,8c-2.961273,0.480545 -5.139343,-0.407333 -5,1c0.355286,3.587997 29.157227,5.5979 71,11c49.240082,6.357132 98.446594,16.632416 134,29c23.327087,8.114563 35.42334,14.428253 41,19c2.187317,1.793182 3.565369,4.15097 1,6c-4.867432,3.50827 -17,2 -30,2c-12,0 -18,0 -21,0c-1,0 -1.389343,-2.159271 0,-5c3.168213,-6.477844 10.555054,-14.412354 18,-22c10.411621,-10.611206 19,-19 26,-28l7,-10" id="svg_2" stroke-width="1.5" stroke="#000" fill="none"/>
 </g>
</svg>